<svg xmlns="http://www.w3.org/2000/svg" width="375" viewBox="0 0 375 375" height="375" version="1.0"><path fill="#FFF" d="M-37.5 -37.5H412.5V412.5H-37.5z"/><path fill="#FFF" d="M-37.5 -37.5H412.5V412.5H-37.5z"/><path fill="#262626" d="M-37.5 -37.5H412.5V412.5H-37.5z"/><g fill="#E95420"><g><g><path d="M 4.6875 -8.203125 C 4.957031 -7.523438 5.453125 -6.878906 6.171875 -6.265625 C 6.898438 -5.648438 7.800781 -5.097656 8.875 -4.609375 C 9.945312 -4.117188 11.132812 -3.734375 12.4375 -3.453125 C 13.75 -3.179688 15.097656 -3.046875 16.484375 -3.046875 C 19.296875 -3.046875 21.445312 -3.59375 22.9375 -4.6875 C 24.625 -5.957031 25.46875 -7.9375 25.46875 -10.625 C 25.46875 -11.78125 25.332031 -12.765625 25.0625 -13.578125 C 24.789062 -14.390625 24.351562 -15.078125 23.75 -15.640625 C 23.15625 -16.203125 22.367188 -16.6875 21.390625 -17.09375 C 20.421875 -17.5 19.179688 -17.875 17.671875 -18.21875 L 16.96875 -18.390625 C 16.570312 -18.472656 15.789062 -18.660156 14.625 -18.953125 C 13.46875 -19.242188 12.46875 -19.519531 11.625 -19.78125 C 9.738281 -20.351562 8.160156 -21.09375 6.890625 -22 C 5.648438 -22.96875 4.738281 -24.082031 4.15625 -25.34375 C 3.582031 -26.601562 3.296875 -28.070312 3.296875 -29.75 C 3.296875 -31.289062 3.53125 -32.675781 4 -33.90625 C 4.476562 -35.144531 5.160156 -36.195312 6.046875 -37.0625 C 7.242188 -38.15625 8.640625 -38.957031 10.234375 -39.46875 C 11.835938 -39.976562 13.984375 -40.234375 16.671875 -40.234375 C 18.703125 -40.234375 20.34375 -40.09375 21.59375 -39.8125 C 22.851562 -39.53125 24 -39.109375 25.03125 -38.546875 C 25.882812 -38.066406 26.597656 -37.59375 27.171875 -37.125 C 27.753906 -36.664062 28.1875 -36.273438 28.46875 -35.953125 L 26.890625 -31.8125 C 26.597656 -32.226562 26.1875 -32.679688 25.65625 -33.171875 C 25.132812 -33.660156 24.488281 -34.113281 23.71875 -34.53125 C 22.882812 -34.96875 21.90625 -35.335938 20.78125 -35.640625 C 19.65625 -35.941406 18.191406 -36.09375 16.390625 -36.09375 C 14.398438 -36.09375 12.863281 -35.921875 11.78125 -35.578125 C 10.695312 -35.242188 9.828125 -34.648438 9.171875 -33.796875 C 8.410156 -32.859375 8.03125 -31.546875 8.03125 -29.859375 C 8.03125 -28.796875 8.226562 -27.910156 8.625 -27.203125 C 9.03125 -26.492188 9.625 -25.890625 10.40625 -25.390625 C 11.09375 -24.929688 11.9375 -24.539062 12.9375 -24.21875 C 13.9375 -23.90625 15.226562 -23.566406 16.8125 -23.203125 C 18.644531 -22.753906 20.054688 -22.390625 21.046875 -22.109375 C 22.035156 -21.835938 22.972656 -21.515625 23.859375 -21.140625 C 24.910156 -20.703125 25.832031 -20.203125 26.625 -19.640625 C 27.414062 -19.078125 28.082031 -18.40625 28.625 -17.625 C 29.789062 -15.96875 30.375 -13.707031 30.375 -10.84375 C 30.375 -6.394531 28.8125 -3.171875 25.6875 -1.171875 C 23.363281 0.316406 20.140625 1.0625 16.015625 1.0625 C 12.785156 1.0625 9.960938 0.550781 7.546875 -0.46875 C 6.421875 -0.9375 5.460938 -1.5 4.671875 -2.15625 C 3.878906 -2.820312 3.285156 -3.535156 2.890625 -4.296875 Z M 4.6875 -8.203125" transform="translate(32.836 340.466)"/></g></g></g><g fill="#E95420"><g><g><path d="M 26.671875 -7.4375 C 26.410156 -5.90625 26.0625 -4.695312 25.625 -3.8125 C 25.40625 -3.375 25.234375 -3.082031 25.109375 -2.9375 C 24.960938 -2.789062 24.816406 -2.628906 24.671875 -2.453125 C 23.984375 -1.628906 22.96875 -0.945312 21.625 -0.40625 C 19.894531 0.28125 17.804688 0.625 15.359375 0.625 C 12.816406 0.625 10.703125 0.28125 9.015625 -0.40625 C 7.765625 -0.914062 6.773438 -1.585938 6.046875 -2.421875 C 5.234375 -3.398438 4.585938 -4.5625 4.109375 -5.90625 C 3.367188 -7.925781 3 -10.539062 3 -13.75 C 3 -16.925781 3.378906 -19.535156 4.140625 -21.578125 C 4.609375 -22.878906 5.257812 -24.007812 6.09375 -24.96875 C 6.769531 -25.789062 7.769531 -26.492188 9.09375 -27.078125 C 10.800781 -27.796875 12.851562 -28.15625 15.25 -28.15625 C 17.9375 -28.15625 20.160156 -27.734375 21.921875 -26.890625 C 23.160156 -26.242188 24.132812 -25.429688 24.84375 -24.453125 C 25.351562 -23.765625 25.796875 -22.847656 26.171875 -21.703125 C 26.679688 -20.140625 26.9375 -18.269531 26.9375 -16.09375 L 26.9375 -15.546875 C 26.914062 -15.347656 26.90625 -15.050781 26.90625 -14.65625 L 26.90625 -13.734375 C 26.894531 -13.523438 26.890625 -13.304688 26.890625 -13.078125 L 7.25 -13.078125 C 7.25 -9.679688 7.800781 -7.070312 8.90625 -5.25 C 9.375 -4.457031 9.9375 -3.878906 10.59375 -3.515625 C 11.0625 -3.222656 11.914062 -2.976562 13.15625 -2.78125 C 13.84375 -2.6875 14.613281 -2.640625 15.46875 -2.640625 C 17.082031 -2.640625 18.425781 -2.800781 19.5 -3.125 C 20.257812 -3.363281 20.847656 -3.617188 21.265625 -3.890625 C 21.753906 -4.222656 22.15625 -4.726562 22.46875 -5.40625 C 22.78125 -6.082031 23.050781 -7.066406 23.28125 -8.359375 Z M 20.5625 -16.171875 L 22.71875 -16.015625 C 22.59375 -18.285156 22.289062 -20.109375 21.8125 -21.484375 C 21.445312 -22.453125 21.015625 -23.125 20.515625 -23.5 C 20.003906 -23.84375 19.304688 -24.144531 18.421875 -24.40625 C 17.546875 -24.675781 16.453125 -24.8125 15.140625 -24.8125 C 13.523438 -24.8125 12.15625 -24.601562 11.03125 -24.1875 C 10.226562 -23.875 9.609375 -23.492188 9.171875 -23.046875 C 8.703125 -22.535156 8.332031 -21.851562 8.0625 -21 C 7.625 -19.65625 7.367188 -18.046875 7.296875 -16.171875 Z M 20.5625 -16.171875" transform="translate(65.82 340.466)"/></g></g></g><g fill="#E95420"><g><g><path d="M 25.921875 -24.734375 C 26.503906 -23.828125 26.960938 -22.316406 27.296875 -20.203125 C 27.453125 -19.097656 27.53125 -17.691406 27.53125 -15.984375 L 27.53125 0 L 23.34375 0 L 23.34375 -16.8125 C 23.34375 -18.570312 23.195312 -20.03125 22.90625 -21.1875 C 22.757812 -21.675781 22.632812 -22.015625 22.53125 -22.203125 C 22.488281 -22.253906 22.394531 -22.394531 22.25 -22.625 C 22.101562 -22.863281 21.894531 -23.128906 21.625 -23.421875 C 21.15625 -23.929688 20.273438 -24.304688 18.984375 -24.546875 C 18.367188 -24.671875 17.550781 -24.734375 16.53125 -24.734375 C 14.519531 -24.734375 12.894531 -24.476562 11.65625 -23.96875 C 10.769531 -23.582031 10.117188 -23.066406 9.703125 -22.421875 C 9.316406 -21.816406 9.035156 -21.023438 8.859375 -20.046875 C 8.617188 -18.753906 8.5 -17.019531 8.5 -14.84375 L 8.5 0 L 4.296875 0 L 4.296875 -27.53125 L 7.765625 -27.53125 L 8.09375 -23.5 C 8.957031 -24.757812 10.035156 -25.78125 11.328125 -26.5625 C 13.128906 -27.625 15.3125 -28.15625 17.875 -28.15625 C 20.5625 -28.15625 22.710938 -27.585938 24.328125 -26.453125 C 25.046875 -25.921875 25.578125 -25.347656 25.921875 -24.734375 Z M 25.921875 -24.734375" transform="translate(95.672 340.466)"/></g></g></g><g fill="#E95420"><g><g><path d="M 6.078125 -7.625 C 6.273438 -6.59375 6.554688 -5.75 6.921875 -5.09375 C 7.285156 -4.4375 7.753906 -3.925781 8.328125 -3.5625 C 8.878906 -3.21875 9.535156 -2.976562 10.296875 -2.84375 C 11.054688 -2.707031 12.007812 -2.640625 13.15625 -2.640625 C 14.519531 -2.640625 15.726562 -2.832031 16.78125 -3.21875 C 17.570312 -3.488281 18.160156 -3.8125 18.546875 -4.1875 C 18.785156 -4.394531 18.992188 -4.753906 19.171875 -5.265625 C 19.359375 -5.785156 19.453125 -6.378906 19.453125 -7.046875 C 19.453125 -7.816406 19.351562 -8.441406 19.15625 -8.921875 C 18.96875 -9.398438 18.664062 -9.800781 18.25 -10.125 C 17.851562 -10.4375 17.332031 -10.707031 16.6875 -10.9375 C 16.039062 -11.164062 15.195312 -11.40625 14.15625 -11.65625 C 12.09375 -12.21875 10.457031 -12.703125 9.25 -13.109375 C 8.039062 -13.523438 7 -14.003906 6.125 -14.546875 C 5.125 -15.179688 4.375 -15.960938 3.875 -16.890625 C 3.375 -17.816406 3.125 -18.988281 3.125 -20.40625 C 3.125 -21.539062 3.351562 -22.609375 3.8125 -23.609375 C 4.125 -24.304688 4.53125 -24.90625 5.03125 -25.40625 C 5.707031 -26.082031 6.617188 -26.664062 7.765625 -27.15625 C 9.410156 -27.820312 11.207031 -28.15625 13.15625 -28.15625 C 16.570312 -28.15625 19.097656 -27.382812 20.734375 -25.84375 C 21.816406 -24.8125 22.457031 -23.453125 22.65625 -21.765625 L 19.46875 -20.34375 C 19.070312 -22.226562 18.285156 -23.5 17.109375 -24.15625 C 16.597656 -24.425781 16.03125 -24.601562 15.40625 -24.6875 C 14.78125 -24.769531 13.992188 -24.8125 13.046875 -24.8125 C 11.804688 -24.8125 10.679688 -24.648438 9.671875 -24.328125 C 9.054688 -24.117188 8.5 -23.816406 8 -23.421875 C 7.769531 -23.203125 7.5625 -22.878906 7.375 -22.453125 C 7.195312 -22.023438 7.109375 -21.476562 7.109375 -20.8125 C 7.140625 -20.125 7.242188 -19.5625 7.421875 -19.125 C 7.597656 -18.6875 7.882812 -18.3125 8.28125 -18 C 8.675781 -17.695312 9.207031 -17.421875 9.875 -17.171875 C 10.550781 -16.929688 11.484375 -16.664062 12.671875 -16.375 C 13.804688 -16.039062 14.539062 -15.835938 14.875 -15.765625 C 16.757812 -15.296875 18.347656 -14.734375 19.640625 -14.078125 C 21.234375 -13.222656 22.367188 -12.035156 23.046875 -10.515625 C 23.390625 -9.710938 23.5625 -8.738281 23.5625 -7.59375 C 23.5625 -6.3125 23.332031 -5.148438 22.875 -4.109375 C 22.476562 -3.203125 22 -2.515625 21.4375 -2.046875 C 20.6875 -1.390625 19.796875 -0.84375 18.765625 -0.40625 C 17.128906 0.28125 15.1875 0.625 12.9375 0.625 C 9.445312 0.625 6.90625 -0.0234375 5.3125 -1.328125 C 4.601562 -1.910156 4.039062 -2.597656 3.625 -3.390625 C 3.21875 -4.179688 2.898438 -5.117188 2.671875 -6.203125 Z M 6.078125 -7.625" transform="translate(127.266 340.466)"/></g></g></g><g fill="#E95420"><g><g><path d="M 26.671875 -7.4375 C 26.410156 -5.90625 26.0625 -4.695312 25.625 -3.8125 C 25.40625 -3.375 25.234375 -3.082031 25.109375 -2.9375 C 24.960938 -2.789062 24.816406 -2.628906 24.671875 -2.453125 C 23.984375 -1.628906 22.96875 -0.945312 21.625 -0.40625 C 19.894531 0.28125 17.804688 0.625 15.359375 0.625 C 12.816406 0.625 10.703125 0.28125 9.015625 -0.40625 C 7.765625 -0.914062 6.773438 -1.585938 6.046875 -2.421875 C 5.234375 -3.398438 4.585938 -4.5625 4.109375 -5.90625 C 3.367188 -7.925781 3 -10.539062 3 -13.75 C 3 -16.925781 3.378906 -19.535156 4.140625 -21.578125 C 4.609375 -22.878906 5.257812 -24.007812 6.09375 -24.96875 C 6.769531 -25.789062 7.769531 -26.492188 9.09375 -27.078125 C 10.800781 -27.796875 12.851562 -28.15625 15.25 -28.15625 C 17.9375 -28.15625 20.160156 -27.734375 21.921875 -26.890625 C 23.160156 -26.242188 24.132812 -25.429688 24.84375 -24.453125 C 25.351562 -23.765625 25.796875 -22.847656 26.171875 -21.703125 C 26.679688 -20.140625 26.9375 -18.269531 26.9375 -16.09375 L 26.9375 -15.546875 C 26.914062 -15.347656 26.90625 -15.050781 26.90625 -14.65625 L 26.90625 -13.734375 C 26.894531 -13.523438 26.890625 -13.304688 26.890625 -13.078125 L 7.25 -13.078125 C 7.25 -9.679688 7.800781 -7.070312 8.90625 -5.25 C 9.375 -4.457031 9.9375 -3.878906 10.59375 -3.515625 C 11.0625 -3.222656 11.914062 -2.976562 13.15625 -2.78125 C 13.84375 -2.6875 14.613281 -2.640625 15.46875 -2.640625 C 17.082031 -2.640625 18.425781 -2.800781 19.5 -3.125 C 20.257812 -3.363281 20.847656 -3.617188 21.265625 -3.890625 C 21.753906 -4.222656 22.15625 -4.726562 22.46875 -5.40625 C 22.78125 -6.082031 23.050781 -7.066406 23.28125 -8.359375 Z M 20.5625 -16.171875 L 22.71875 -16.015625 C 22.59375 -18.285156 22.289062 -20.109375 21.8125 -21.484375 C 21.445312 -22.453125 21.015625 -23.125 20.515625 -23.5 C 20.003906 -23.84375 19.304688 -24.144531 18.421875 -24.40625 C 17.546875 -24.675781 16.453125 -24.8125 15.140625 -24.8125 C 13.523438 -24.8125 12.15625 -24.601562 11.03125 -24.1875 C 10.226562 -23.875 9.609375 -23.492188 9.171875 -23.046875 C 8.703125 -22.535156 8.332031 -21.851562 8.0625 -21 C 7.625 -19.65625 7.367188 -18.046875 7.296875 -16.171875 Z M 20.5625 -16.171875" transform="translate(153.468 340.466)"/></g></g></g><g fill="#E95420"><g><g><path d="M 6.375 -37.3125 C 7.40625 -37.3125 8.101562 -37.085938 8.46875 -36.640625 C 8.78125 -36.234375 8.9375 -35.5625 8.9375 -34.625 C 8.9375 -34.019531 8.863281 -33.550781 8.71875 -33.21875 C 8.570312 -32.882812 8.316406 -32.644531 7.953125 -32.5 C 7.585938 -32.351562 7.0625 -32.28125 6.375 -32.28125 C 5.445312 -32.28125 4.796875 -32.453125 4.421875 -32.796875 C 4.054688 -33.140625 3.875 -33.75 3.875 -34.625 C 3.875 -35.539062 4.050781 -36.21875 4.40625 -36.65625 C 4.769531 -37.09375 5.425781 -37.3125 6.375 -37.3125 Z M 8.5 0 L 4.296875 0 L 4.296875 -27.53125 L 8.5 -27.53125 Z M 8.5 0" transform="translate(183.32 340.466)"/></g></g></g><g fill="#E95420"><g><g><path d="M 35.8125 -9.171875 C 35.414062 -7.335938 34.800781 -5.742188 33.96875 -4.390625 C 33.382812 -3.441406 32.765625 -2.710938 32.109375 -2.203125 C 31.910156 -2.046875 31.507812 -1.773438 30.90625 -1.390625 C 29.53125 -0.515625 27.65625 0.164062 25.28125 0.65625 C 23.96875 0.925781 22.46875 1.0625 20.78125 1.0625 C 17.582031 1.0625 14.75 0.523438 12.28125 -0.546875 C 10.570312 -1.253906 9.164062 -2.144531 8.0625 -3.21875 C 7.382812 -3.832031 6.757812 -4.644531 6.1875 -5.65625 C 5.625 -6.675781 5.125 -7.847656 4.6875 -9.171875 C 3.707031 -12.117188 3.21875 -15.40625 3.21875 -19.03125 C 3.21875 -23.226562 3.742188 -26.84375 4.796875 -29.875 C 5.535156 -32.039062 6.476562 -33.785156 7.625 -35.109375 C 8.09375 -35.648438 8.707031 -36.207031 9.46875 -36.78125 C 10.238281 -37.351562 11.128906 -37.875 12.140625 -38.34375 C 14.722656 -39.507812 17.613281 -40.09375 20.8125 -40.09375 C 23.820312 -40.09375 26.523438 -39.601562 28.921875 -38.625 C 29.773438 -38.28125 30.503906 -37.910156 31.109375 -37.515625 C 31.722656 -37.128906 32.175781 -36.789062 32.46875 -36.5 C 33.101562 -35.863281 33.664062 -35.09375 34.15625 -34.1875 C 34.84375 -32.894531 35.351562 -31.441406 35.6875 -29.828125 L 31.703125 -27.78125 C 31.335938 -29.394531 30.878906 -30.742188 30.328125 -31.828125 C 29.773438 -32.910156 29.191406 -33.640625 28.578125 -34.015625 L 27.8125 -34.484375 C 26.863281 -35.023438 25.59375 -35.453125 24 -35.765625 C 23.101562 -35.921875 22.066406 -36 20.890625 -36 C 18.546875 -36 16.503906 -35.640625 14.765625 -34.921875 C 13.515625 -34.410156 12.476562 -33.765625 11.65625 -32.984375 C 10.695312 -32.054688 9.914062 -30.640625 9.3125 -28.734375 C 8.507812 -26.171875 8.109375 -23.078125 8.109375 -19.453125 C 8.109375 -15.921875 8.472656 -12.882812 9.203125 -10.34375 C 9.691406 -8.644531 10.328125 -7.320312 11.109375 -6.375 C 11.941406 -5.414062 13.148438 -4.632812 14.734375 -4.03125 C 16.535156 -3.34375 18.550781 -3 20.78125 -3 C 22.9375 -3 24.878906 -3.328125 26.609375 -3.984375 C 27.265625 -4.234375 27.832031 -4.503906 28.3125 -4.796875 C 28.789062 -5.085938 29.160156 -5.359375 29.421875 -5.609375 L 29.90625 -6.1875 C 30.363281 -6.78125 30.835938 -7.710938 31.328125 -8.984375 C 31.617188 -9.734375 31.84375 -10.515625 32 -11.328125 Z M 35.8125 -9.171875" transform="translate(196.121 340.466)"/></g></g></g><g fill="#E95420"><g><g><path d="M 4.5 0 L 4.5 -39.25 L 8.65625 -39.25 L 8.65625 0 Z M 4.5 0" transform="translate(234.39 340.466)"/></g></g></g><g fill="#E95420"><g><g><path d="M 15.640625 -28.15625 C 18.117188 -28.15625 20.332031 -27.765625 22.28125 -26.984375 C 23.695312 -26.390625 24.773438 -25.6875 25.515625 -24.875 C 26.335938 -23.945312 26.96875 -22.816406 27.40625 -21.484375 C 28.070312 -19.472656 28.40625 -16.929688 28.40625 -13.859375 C 28.40625 -10.753906 28.070312 -8.175781 27.40625 -6.125 C 26.945312 -4.707031 26.316406 -3.546875 25.515625 -2.640625 C 24.773438 -1.785156 23.707031 -1.078125 22.3125 -0.515625 C 20.40625 0.242188 18.179688 0.625 15.640625 0.625 C 13.078125 0.625 10.878906 0.234375 9.046875 -0.546875 C 7.660156 -1.109375 6.597656 -1.816406 5.859375 -2.671875 C 5.054688 -3.578125 4.429688 -4.726562 3.984375 -6.125 C 3.304688 -8.175781 2.96875 -10.726562 2.96875 -13.78125 C 2.96875 -16.832031 3.304688 -19.382812 3.984375 -21.4375 C 4.398438 -22.78125 5.015625 -23.914062 5.828125 -24.84375 C 6.578125 -25.675781 7.65625 -26.390625 9.0625 -26.984375 C 10.988281 -27.765625 13.179688 -28.15625 15.640625 -28.15625 Z M 15.640625 -24.765625 C 13.660156 -24.765625 12.078125 -24.535156 10.890625 -24.078125 C 9.960938 -23.691406 9.285156 -23.21875 8.859375 -22.65625 C 8.378906 -22.039062 8.023438 -21.207031 7.796875 -20.15625 C 7.429688 -18.644531 7.25 -16.484375 7.25 -13.671875 C 7.25 -10.953125 7.429688 -8.847656 7.796875 -7.359375 C 8.066406 -6.242188 8.425781 -5.40625 8.875 -4.84375 C 9.332031 -4.300781 10.03125 -3.847656 10.96875 -3.484375 C 12.15625 -3.015625 13.765625 -2.78125 15.796875 -2.78125 C 17.703125 -2.78125 19.273438 -3.015625 20.515625 -3.484375 C 21.398438 -3.828125 22.070312 -4.300781 22.53125 -4.90625 C 23 -5.519531 23.359375 -6.351562 23.609375 -7.40625 C 23.953125 -8.945312 24.125 -11.054688 24.125 -13.734375 C 24.125 -16.523438 23.9375 -18.710938 23.5625 -20.296875 C 23.289062 -21.347656 22.910156 -22.171875 22.421875 -22.765625 C 21.859375 -23.367188 21.164062 -23.816406 20.34375 -24.109375 C 19.09375 -24.546875 17.523438 -24.765625 15.640625 -24.765625 Z M 15.640625 -24.765625" transform="translate(247.572 340.466)"/></g></g></g><g fill="#E95420"><g><g><path d="M 4.0625 -27.53125 L 8.25 -27.53125 L 8.25 -10.96875 C 8.25 -9.03125 8.378906 -7.535156 8.640625 -6.484375 C 8.742188 -6.023438 8.859375 -5.679688 8.984375 -5.453125 C 9.035156 -5.335938 9.132812 -5.15625 9.28125 -4.90625 C 9.570312 -4.289062 10.070312 -3.816406 10.78125 -3.484375 C 11.757812 -3.015625 13.132812 -2.78125 14.90625 -2.78125 C 16.789062 -2.78125 18.3125 -3.003906 19.46875 -3.453125 C 20.289062 -3.785156 20.921875 -4.195312 21.359375 -4.6875 C 21.847656 -5.175781 22.21875 -5.820312 22.46875 -6.625 C 22.851562 -7.832031 23.046875 -9.457031 23.046875 -11.5 L 23.046875 -27.53125 L 27.203125 -27.53125 L 27.203125 0 L 23.71875 0 L 23.375 -3.984375 C 23.0625 -3.484375 22.710938 -3.007812 22.328125 -2.5625 C 21.953125 -2.125 21.4375 -1.6875 20.78125 -1.25 C 18.90625 0 16.5625 0.625 13.75 0.625 C 11.625 0.625 9.835938 0.328125 8.390625 -0.265625 C 7.390625 -0.691406 6.585938 -1.203125 5.984375 -1.796875 C 5.460938 -2.328125 5.046875 -3.109375 4.734375 -4.140625 C 4.285156 -5.660156 4.0625 -7.691406 4.0625 -10.234375 Z M 4.0625 -27.53125" transform="translate(278.976 340.466)"/></g></g></g><g fill="#E95420"><g><g><path d="M 23.171875 -39.25 L 27.375 -39.25 L 27.375 0 L 24.046875 0 L 23.5625 -4.515625 C 23.226562 -3.921875 22.863281 -3.359375 22.46875 -2.828125 C 22.070312 -2.304688 21.5625 -1.804688 20.9375 -1.328125 C 19.238281 -0.0234375 16.960938 0.625 14.109375 0.625 C 11.660156 0.625 9.570312 0.160156 7.84375 -0.765625 C 7.15625 -1.128906 6.566406 -1.546875 6.078125 -2.015625 C 5.597656 -2.484375 5.234375 -2.945312 4.984375 -3.40625 C 4.734375 -3.84375 4.507812 -4.28125 4.3125 -4.71875 C 4.125 -5.164062 3.945312 -5.734375 3.78125 -6.421875 C 3.332031 -8.242188 3.109375 -10.6875 3.109375 -13.75 C 3.109375 -17.132812 3.414062 -19.84375 4.03125 -21.875 C 4.445312 -23.320312 5.054688 -24.460938 5.859375 -25.296875 C 6.597656 -26.046875 7.476562 -26.644531 8.5 -27.09375 C 10.007812 -27.789062 11.894531 -28.140625 14.15625 -28.140625 C 16.71875 -28.140625 18.800781 -27.65625 20.40625 -26.6875 C 21.675781 -25.90625 22.597656 -24.789062 23.171875 -23.34375 Z M 15.140625 -24.765625 C 13.253906 -24.765625 11.757812 -24.507812 10.65625 -24 C 9.90625 -23.664062 9.304688 -23.175781 8.859375 -22.53125 C 8.453125 -21.945312 8.125 -21.082031 7.875 -19.9375 C 7.53125 -18.34375 7.359375 -16.191406 7.359375 -13.484375 C 7.359375 -10.742188 7.539062 -8.664062 7.90625 -7.25 C 8.132812 -6.25 8.457031 -5.46875 8.875 -4.90625 C 9.351562 -4.269531 9.9375 -3.804688 10.625 -3.515625 C 11.695312 -3.023438 13.175781 -2.78125 15.0625 -2.78125 C 16.96875 -2.78125 18.472656 -3.023438 19.578125 -3.515625 C 20.359375 -3.835938 20.976562 -4.300781 21.4375 -4.90625 C 21.925781 -5.5 22.304688 -6.316406 22.578125 -7.359375 C 22.972656 -8.953125 23.171875 -11.082031 23.171875 -13.75 C 23.171875 -16.039062 23.035156 -18.003906 22.765625 -19.640625 C 22.660156 -20.296875 22.550781 -20.8125 22.4375 -21.1875 C 22.257812 -21.675781 22.160156 -21.929688 22.140625 -21.953125 C 21.578125 -22.953125 20.726562 -23.671875 19.59375 -24.109375 C 18.457031 -24.546875 16.972656 -24.765625 15.140625 -24.765625 Z M 15.140625 -24.765625" transform="translate(310.49 340.466)"/></g></g></g><path stroke-linecap="round" transform="matrix(2.69248 2.60913 -2.60964 2.693 102.868 104.495)" fill="none" d="M 0.500361 0.0000443647 L 31.307678 -0.000440283" stroke="#000"/><path fill="#E95420" d="M 102.75 84.375 C 92.601562 84.375 84.375 92.601562 84.375 102.75 C 84.375 112.898438 92.601562 121.125 102.75 121.125 C 112.898438 121.125 121.125 112.898438 121.125 102.75 C 121.125 92.601562 112.898438 84.375 102.75 84.375"/><path stroke-linecap="round" transform="matrix(2.25447 -2.98749 2.99332 2.25888 187.5 186.97)" fill="none" d="M 0.500448 0.000310856 L 37.97533 -0.00026735" stroke="#000"/><path fill="#E95420" d="M 274.292969 52.460938 C 264.144531 52.460938 255.917969 60.6875 255.917969 70.835938 C 255.917969 80.984375 264.144531 89.210938 274.292969 89.210938 C 284.441406 89.210938 292.667969 80.984375 292.667969 70.835938 C 292.667969 60.6875 284.441406 52.460938 274.292969 52.460938"/><path stroke-linecap="round" transform="matrix(3.28726 1.7902 -1.7935 3.2933 187.5 186.762)" fill="none" d="M 0.500147 -0.000302843 L 33.563545 0.0000367127" stroke="#000"/><path fill="#E95420" d="M 299.550781 229.359375 C 289.402344 229.359375 281.175781 237.585938 281.175781 247.734375 C 281.175781 257.882812 289.402344 266.109375 299.550781 266.109375 C 309.699219 266.109375 317.925781 257.882812 317.925781 247.734375 C 317.925781 237.585938 309.699219 229.359375 299.550781 229.359375"/><path stroke-linecap="round" transform="matrix(3.1377 -2.03366 2.03958 3.14684 84.375 252.364)" fill="none" d="M 0.500397 0.000337251 L 31.795748 0.000165434" stroke="#000"/><path fill="#E95420" d="M 187.640625 145.640625 C 164.445312 145.640625 145.640625 164.445312 145.640625 187.640625 C 145.640625 210.835938 164.445312 229.640625 187.640625 229.640625 C 210.835938 229.640625 229.640625 210.835938 229.640625 187.640625 C 229.640625 164.445312 210.835938 145.640625 187.640625 145.640625"/><path fill="#E95420" d="M 79.566406 236.722656 C 69.417969 236.722656 61.191406 244.949219 61.191406 255.097656 C 61.191406 265.246094 69.417969 273.472656 79.566406 273.472656 C 89.714844 273.472656 97.941406 265.246094 97.941406 255.097656 C 97.941406 244.949219 89.714844 236.722656 79.566406 236.722656"/></svg>