<svg xmlns="http://www.w3.org/2000/svg" width="1500" viewBox="0 0 1500 375" height="375" version="1.0"><path fill="#FFF" d="M-150 -37.5H1650V412.5H-150z"/><path fill="#FFF" d="M-150 -37.5H1650V412.5H-150z"/><path fill="#262626" d="M-150 -37.5H1650V412.5H-150z"/><path stroke-linecap="round" transform="matrix(3.77649 3.65958 -3.78006 3.90082 93.887 108.178)" fill="none" d="M 0.499803 0.000228775 L 30.306466 -0.000256162" stroke="#000"/><path fill="#E95420" d="M 94.0625 80.773438 C 80.183594 80.773438 68.9375 92.023438 68.9375 105.898438 C 68.9375 119.777344 80.183594 131.023438 94.0625 131.023438 C 107.9375 131.023438 119.1875 119.777344 119.1875 105.898438 C 119.1875 92.023438 107.9375 80.773438 94.0625 80.773438"/><path stroke-linecap="round" transform="matrix(3.16432 -4.19316 4.33582 3.27198 208.908 219.989)" fill="none" d="M 0.500478 0.0000900289 L 36.764036 0.000197027" stroke="#000"/><path fill="#E95420" d="M 326.660156 37.5 C 312.785156 37.5 301.535156 48.75 301.535156 62.625 C 301.535156 76.5 312.785156 87.75 326.660156 87.75 C 340.535156 87.75 351.785156 76.5 351.785156 62.625 C 351.785156 48.75 340.535156 37.5 326.660156 37.5"/><path stroke-linecap="round" transform="matrix(4.61219 2.51174 -2.59788 4.77035 208.68 219.758)" fill="none" d="M 0.499515 -0.000146621 L 32.491096 0.0000192902" stroke="#000"/><path fill="#E95420" d="M 360.910156 277.363281 C 347.035156 277.363281 335.785156 288.613281 335.785156 302.488281 C 335.785156 316.363281 347.035156 327.613281 360.910156 327.613281 C 374.785156 327.613281 386.035156 316.363281 386.035156 302.488281 C 386.035156 288.613281 374.785156 277.363281 360.910156 277.363281"/><path stroke-linecap="round" transform="matrix(4.40684 -2.85622 2.95433 4.5582 69.032 308.7)" fill="none" d="M 0.499701 0.0000155462 L 30.778611 -0.00021094" stroke="#000"/><path fill="#E95420" d="M 208.632812 163.847656 C 177.359375 163.847656 152.007812 189.199219 152.007812 220.472656 C 152.007812 251.742188 177.359375 277.097656 208.632812 277.097656 C 239.90625 277.097656 265.257812 251.742188 265.257812 220.472656 C 265.257812 189.199219 239.90625 163.847656 208.632812 163.847656"/><path fill="#E95420" d="M 62.625 287.347656 C 48.75 287.347656 37.5 298.597656 37.5 312.472656 C 37.5 326.347656 48.75 337.597656 62.625 337.597656 C 76.5 337.597656 87.75 326.347656 87.75 312.472656 C 87.75 298.597656 76.5 287.347656 62.625 287.347656"/><g fill="#E95420"><g><g><path d="M 94.390625 -28.859375 C 94.390625 -19.210938 90.613281 -11.742188 83.0625 -6.453125 C 75.519531 -1.160156 64.898438 1.484375 51.203125 1.484375 C 25.722656 1.484375 10.957031 -7.367188 6.90625 -25.078125 L 20.625 -27.828125 C 22.207031 -21.546875 25.570312 -16.929688 30.71875 -13.984375 C 35.863281 -11.046875 42.863281 -9.578125 51.71875 -9.578125 C 60.875 -9.578125 67.9375 -11.144531 72.90625 -14.28125 C 77.875 -17.425781 80.359375 -22.039062 80.359375 -28.125 C 80.359375 -31.539062 79.578125 -34.3125 78.015625 -36.4375 C 76.460938 -38.5625 74.273438 -40.316406 71.453125 -41.703125 C 68.640625 -43.085938 65.273438 -44.25 61.359375 -45.1875 C 57.453125 -46.125 53.125 -47.140625 48.375 -48.234375 C 40.113281 -50.066406 33.84375 -51.894531 29.5625 -53.71875 C 25.289062 -55.550781 21.914062 -57.59375 19.4375 -59.84375 C 16.96875 -62.09375 15.078125 -64.726562 13.765625 -67.75 C 12.453125 -70.769531 11.796875 -74.234375 11.796875 -78.140625 C 11.796875 -87.085938 15.222656 -93.984375 22.078125 -98.828125 C 28.929688 -103.679688 38.738281 -106.109375 51.5 -106.109375 C 63.375 -106.109375 72.453125 -104.289062 78.734375 -100.65625 C 85.015625 -97.019531 89.414062 -90.820312 91.9375 -82.0625 L 77.984375 -79.625 C 76.453125 -85.164062 73.535156 -89.179688 69.234375 -91.671875 C 64.929688 -94.171875 58.96875 -95.421875 51.34375 -95.421875 C 42.988281 -95.421875 36.609375 -94.035156 32.203125 -91.265625 C 27.796875 -88.492188 25.59375 -84.363281 25.59375 -78.875 C 25.59375 -75.664062 26.445312 -73.007812 28.15625 -70.90625 C 29.863281 -68.800781 32.320312 -67.019531 35.53125 -65.5625 C 38.75 -64.101562 45.160156 -62.304688 54.765625 -60.171875 C 57.972656 -59.429688 61.171875 -58.675781 64.359375 -57.90625 C 67.554688 -57.144531 70.613281 -56.234375 73.53125 -55.171875 C 76.445312 -54.109375 79.179688 -52.859375 81.734375 -51.421875 C 84.285156 -49.984375 86.5 -48.222656 88.375 -46.140625 C 90.257812 -44.066406 91.734375 -41.617188 92.796875 -38.796875 C 93.859375 -35.984375 94.390625 -32.671875 94.390625 -28.859375 Z M 94.390625 -28.859375" transform="translate(496.84 240.013)"/></g></g></g><g fill="#E95420"><g><g><path d="M 20.484375 -37.328125 C 20.484375 -28.117188 22.382812 -21.015625 26.1875 -16.015625 C 30 -11.023438 35.566406 -8.53125 42.890625 -8.53125 C 48.679688 -8.53125 53.316406 -9.691406 56.796875 -12.015625 C 60.285156 -14.347656 62.648438 -17.289062 63.890625 -20.84375 L 75.609375 -17.515625 C 70.816406 -4.847656 59.910156 1.484375 42.890625 1.484375 C 31.015625 1.484375 21.972656 -2.050781 15.765625 -9.125 C 9.554688 -16.195312 6.453125 -26.707031 6.453125 -40.65625 C 6.453125 -53.914062 9.554688 -64.082031 15.765625 -71.15625 C 21.972656 -78.226562 30.84375 -81.765625 42.375 -81.765625 C 65.96875 -81.765625 77.765625 -67.546875 77.765625 -39.109375 L 77.765625 -37.328125 Z M 63.96875 -47.5625 C 63.21875 -56.019531 61.0625 -62.191406 57.5 -66.078125 C 53.945312 -69.960938 48.828125 -71.90625 42.140625 -71.90625 C 35.660156 -71.90625 30.53125 -69.738281 26.75 -65.40625 C 22.96875 -61.082031 20.925781 -55.132812 20.625 -47.5625 Z M 63.96875 -47.5625" transform="translate(598.203 240.013)"/></g></g></g><g fill="#E95420"><g><g><path d="M 61.21875 0 L 61.21875 -50.90625 C 61.21875 -56.195312 60.695312 -60.300781 59.65625 -63.21875 C 58.613281 -66.132812 56.957031 -68.234375 54.6875 -69.515625 C 52.414062 -70.804688 49.078125 -71.453125 44.671875 -71.453125 C 38.242188 -71.453125 33.171875 -69.25 29.453125 -64.84375 C 25.742188 -60.445312 23.890625 -54.34375 23.890625 -46.53125 L 23.890625 0 L 10.53125 0 L 10.53125 -63.140625 C 10.53125 -72.492188 10.382812 -78.207031 10.09375 -80.28125 L 22.703125 -80.28125 C 22.753906 -80.039062 22.800781 -79.375 22.84375 -78.28125 C 22.894531 -77.195312 22.957031 -75.945312 23.03125 -74.53125 C 23.113281 -73.125 23.203125 -70.46875 23.296875 -66.5625 L 23.515625 -66.5625 C 26.585938 -72.101562 30.140625 -76.019531 34.171875 -78.3125 C 38.203125 -80.613281 43.210938 -81.765625 49.203125 -81.765625 C 58.003906 -81.765625 64.445312 -79.578125 68.53125 -75.203125 C 72.613281 -70.828125 74.65625 -63.59375 74.65625 -53.5 L 74.65625 0 Z M 61.21875 0" transform="translate(682.721 240.013)"/></g></g></g><g fill="#E95420"><g><g><path d="M 70.5 -22.1875 C 70.5 -14.613281 67.640625 -8.773438 61.921875 -4.671875 C 56.210938 -0.566406 48.210938 1.484375 37.921875 1.484375 C 27.921875 1.484375 20.210938 -0.160156 14.796875 -3.453125 C 9.378906 -6.742188 5.859375 -11.875 4.234375 -18.84375 L 16.03125 -21.140625 C 17.164062 -16.835938 19.515625 -13.6875 23.078125 -11.6875 C 26.640625 -9.6875 31.585938 -8.6875 37.921875 -8.6875 C 44.691406 -8.6875 49.644531 -9.722656 52.78125 -11.796875 C 55.925781 -13.878906 57.5 -16.992188 57.5 -21.140625 C 57.5 -24.304688 56.410156 -26.878906 54.234375 -28.859375 C 52.066406 -30.835938 48.554688 -32.472656 43.703125 -33.765625 L 34.140625 -36.28125 C 26.460938 -38.257812 21.003906 -40.203125 17.765625 -42.109375 C 14.523438 -44.015625 11.988281 -46.328125 10.15625 -49.046875 C 8.332031 -51.765625 7.421875 -55.101562 7.421875 -59.0625 C 7.421875 -66.382812 10.03125 -71.960938 15.25 -75.796875 C 20.46875 -79.628906 28.070312 -81.546875 38.0625 -81.546875 C 46.914062 -81.546875 53.953125 -79.988281 59.171875 -76.875 C 64.390625 -73.757812 67.691406 -68.765625 69.078125 -61.890625 L 57.0625 -60.40625 C 56.320312 -63.96875 54.332031 -66.695312 51.09375 -68.59375 C 47.851562 -70.5 43.507812 -71.453125 38.0625 -71.453125 C 32.03125 -71.453125 27.578125 -70.535156 24.703125 -68.703125 C 21.835938 -66.878906 20.40625 -64.113281 20.40625 -60.40625 C 20.40625 -58.125 21 -56.238281 22.1875 -54.75 C 23.375 -53.269531 25.128906 -52.007812 27.453125 -50.96875 C 29.773438 -49.9375 34.671875 -48.503906 42.140625 -46.671875 C 49.222656 -44.890625 54.320312 -43.242188 57.4375 -41.734375 C 60.550781 -40.222656 63.007812 -38.550781 64.8125 -36.71875 C 66.625 -34.894531 68.023438 -32.78125 69.015625 -30.375 C 70.003906 -27.976562 70.5 -25.25 70.5 -22.1875 Z M 70.5 -22.1875" transform="translate(767.24 240.013)"/></g></g></g><g fill="#E95420"><g><g><path d="M 20.484375 -37.328125 C 20.484375 -28.117188 22.382812 -21.015625 26.1875 -16.015625 C 30 -11.023438 35.566406 -8.53125 42.890625 -8.53125 C 48.679688 -8.53125 53.316406 -9.691406 56.796875 -12.015625 C 60.285156 -14.347656 62.648438 -17.289062 63.890625 -20.84375 L 75.609375 -17.515625 C 70.816406 -4.847656 59.910156 1.484375 42.890625 1.484375 C 31.015625 1.484375 21.972656 -2.050781 15.765625 -9.125 C 9.554688 -16.195312 6.453125 -26.707031 6.453125 -40.65625 C 6.453125 -53.914062 9.554688 -64.082031 15.765625 -71.15625 C 21.972656 -78.226562 30.84375 -81.765625 42.375 -81.765625 C 65.96875 -81.765625 77.765625 -67.546875 77.765625 -39.109375 L 77.765625 -37.328125 Z M 63.96875 -47.5625 C 63.21875 -56.019531 61.0625 -62.191406 57.5 -66.078125 C 53.945312 -69.960938 48.828125 -71.90625 42.140625 -71.90625 C 35.660156 -71.90625 30.53125 -69.738281 26.75 -65.40625 C 22.96875 -61.082031 20.925781 -55.132812 20.625 -47.5625 Z M 63.96875 -47.5625" transform="translate(843.226 240.013)"/></g></g></g><g fill="#E95420"><g><g><path d="M 10.171875 -97.359375 L 10.171875 -110.125 L 23.515625 -110.125 L 23.515625 -97.359375 Z M 10.171875 0 L 10.171875 -80.28125 L 23.515625 -80.28125 L 23.515625 0 Z M 10.171875 0" transform="translate(927.744 240.013)"/></g></g></g><g fill="#E95420"><g><g><path d="M 58.765625 -94.53125 C 47.191406 -94.53125 38.1875 -90.804688 31.75 -83.359375 C 25.320312 -75.921875 22.109375 -65.722656 22.109375 -52.765625 C 22.109375 -39.953125 25.457031 -29.648438 32.15625 -21.859375 C 38.863281 -14.066406 47.929688 -10.171875 59.359375 -10.171875 C 74.003906 -10.171875 85.015625 -17.414062 92.390625 -31.90625 L 103.953125 -26.125 C 99.648438 -17.113281 93.601562 -10.257812 85.8125 -5.5625 C 78.019531 -0.863281 68.976562 1.484375 58.6875 1.484375 C 48.15625 1.484375 39.039062 -0.703125 31.34375 -5.078125 C 23.65625 -9.460938 17.796875 -15.722656 13.765625 -23.859375 C 9.734375 -31.992188 7.71875 -41.628906 7.71875 -52.765625 C 7.71875 -69.429688 12.21875 -82.488281 21.21875 -91.9375 C 30.226562 -101.382812 42.695312 -106.109375 58.625 -106.109375 C 69.75 -106.109375 79.046875 -103.929688 86.515625 -99.578125 C 93.984375 -95.222656 99.476562 -88.769531 103 -80.21875 L 89.5625 -75.765625 C 87.132812 -81.847656 83.238281 -86.492188 77.875 -89.703125 C 72.507812 -92.921875 66.140625 -94.53125 58.765625 -94.53125 Z M 58.765625 -94.53125" transform="translate(961.507 240.013)"/></g></g></g><g fill="#E95420"><g><g><path d="M 10.234375 0 L 10.234375 -110.125 L 23.59375 -110.125 L 23.59375 0 Z M 10.234375 0" transform="translate(1071.256 240.013)"/></g></g></g><g fill="#E95420"><g><g><path d="M 78.140625 -40.21875 C 78.140625 -26.164062 75.046875 -15.703125 68.859375 -8.828125 C 62.671875 -1.953125 53.691406 1.484375 41.921875 1.484375 C 30.203125 1.484375 21.347656 -2.085938 15.359375 -9.234375 C 9.367188 -16.378906 6.375 -26.707031 6.375 -40.21875 C 6.375 -67.914062 18.375 -81.765625 42.375 -81.765625 C 54.632812 -81.765625 63.660156 -78.390625 69.453125 -71.640625 C 75.242188 -64.890625 78.140625 -54.414062 78.140625 -40.21875 Z M 64.109375 -40.21875 C 64.109375 -51.300781 62.460938 -59.351562 59.171875 -64.375 C 55.890625 -69.394531 50.363281 -71.90625 42.59375 -71.90625 C 34.78125 -71.90625 29.128906 -69.34375 25.640625 -64.21875 C 22.148438 -59.101562 20.40625 -51.101562 20.40625 -40.21875 C 20.40625 -29.632812 22.125 -21.679688 25.5625 -16.359375 C 29 -11.046875 34.40625 -8.390625 41.78125 -8.390625 C 49.789062 -8.390625 55.515625 -10.957031 58.953125 -16.09375 C 62.390625 -21.238281 64.109375 -29.28125 64.109375 -40.21875 Z M 64.109375 -40.21875" transform="translate(1105.019 240.013)"/></g></g></g><g fill="#E95420"><g><g><path d="M 23.296875 -80.28125 L 23.296875 -29.390625 C 23.296875 -24.085938 23.816406 -19.976562 24.859375 -17.0625 C 25.898438 -14.144531 27.554688 -12.039062 29.828125 -10.75 C 32.109375 -9.46875 35.445312 -8.828125 39.84375 -8.828125 C 46.28125 -8.828125 51.351562 -11.023438 55.0625 -15.421875 C 58.769531 -19.828125 60.625 -25.941406 60.625 -33.765625 L 60.625 -80.28125 L 73.984375 -80.28125 L 73.984375 -17.140625 C 73.984375 -7.785156 74.128906 -2.070312 74.421875 0 L 61.8125 0 C 61.757812 -0.25 61.707031 -0.914062 61.65625 -2 C 61.613281 -3.09375 61.550781 -4.34375 61.46875 -5.75 C 61.394531 -7.15625 61.3125 -9.816406 61.21875 -13.734375 L 61 -13.734375 C 57.925781 -8.191406 54.375 -4.269531 50.34375 -1.96875 C 46.3125 0.332031 41.304688 1.484375 35.328125 1.484375 C 26.515625 1.484375 20.066406 -0.703125 15.984375 -5.078125 C 11.910156 -9.460938 9.875 -16.695312 9.875 -26.78125 L 9.875 -80.28125 Z M 23.296875 -80.28125" transform="translate(1189.538 240.013)"/></g></g></g><g fill="#E95420"><g><g><path d="M 60.921875 -12.90625 C 58.441406 -7.757812 55.160156 -4.070312 51.078125 -1.84375 C 47.003906 0.375 41.953125 1.484375 35.921875 1.484375 C 25.773438 1.484375 18.3125 -1.925781 13.53125 -8.75 C 8.757812 -15.582031 6.375 -25.921875 6.375 -39.765625 C 6.375 -67.765625 16.222656 -81.765625 35.921875 -81.765625 C 42.003906 -81.765625 47.070312 -80.648438 51.125 -78.421875 C 55.175781 -76.203125 58.441406 -72.671875 60.921875 -67.828125 L 61.0625 -67.828125 L 60.921875 -76.796875 L 60.921875 -110.125 L 74.28125 -110.125 L 74.28125 -16.546875 C 74.28125 -8.179688 74.425781 -2.664062 74.71875 0 L 61.953125 0 C 61.804688 -0.789062 61.644531 -2.617188 61.46875 -5.484375 C 61.300781 -8.359375 61.21875 -10.832031 61.21875 -12.90625 Z M 20.40625 -40.21875 C 20.40625 -28.988281 21.890625 -20.945312 24.859375 -16.09375 C 27.828125 -11.25 32.648438 -8.828125 39.328125 -8.828125 C 46.898438 -8.828125 52.390625 -11.445312 55.796875 -16.6875 C 59.210938 -21.9375 60.921875 -30.078125 60.921875 -41.109375 C 60.921875 -51.742188 59.210938 -59.535156 55.796875 -64.484375 C 52.390625 -69.429688 46.945312 -71.90625 39.46875 -71.90625 C 32.75 -71.90625 27.890625 -69.414062 24.890625 -64.4375 C 21.898438 -59.46875 20.40625 -51.394531 20.40625 -40.21875 Z M 20.40625 -40.21875" transform="translate(1274.056 240.013)"/></g></g></g></svg>